<?xml version="1.0" encoding="UTF-8"?>
<svg id="Layer_2" data-name="Layer 2" xmlns="http://www.w3.org/2000/svg" viewBox="0 0 356.58 356.58">
  <defs>
    <style>
      .cls-1 {
        fill: #0d140d;
      }
    </style>
  </defs>
  <g id="Layer_1-2" data-name="Layer 1">
    <path class="cls-1" d="m59.44,118.86c0,21.65,5.79,41.95,15.9,59.43-10.11,17.48-15.9,37.78-15.9,59.43,0,17.44,3.75,34,10.5,48.92C28.7,268,0,226.5,0,178.29s28.7-89.7,69.94-108.34c-6.75,14.91-10.5,31.47-10.5,48.91Z"/>
    <path class="cls-1" d="m118.86,178.29c0,17.44,3.76,34,10.51,48.92-22.72-10.27-41.63-27.47-54.03-48.92,12.4-21.45,31.31-38.65,54.03-48.92-6.75,14.92-10.51,31.48-10.51,48.92Z"/>
    <path class="cls-1" d="m281.25,178.29c-12.4,21.45-31.32,38.65-54.04,48.92,6.75-14.92,10.51-31.48,10.51-48.92s-3.76-34-10.51-48.92c22.72,10.27,41.64,27.47,54.04,48.92Z"/>
    <path class="cls-1" d="m356.58,178.29c0,48.21-28.69,89.71-69.93,108.35,6.75-14.92,10.5-31.48,10.5-48.92,0-21.65-5.79-41.95-15.9-59.43,10.11-17.48,15.9-37.78,15.9-59.43,0-17.44-3.75-34-10.5-48.91,41.24,18.64,69.93,60.14,69.93,108.34Z"/>
    <path class="cls-1" d="m178.29,75.34c21.44,12.4,38.65,31.31,48.92,54.03-14.92-6.75-31.48-10.51-48.92-10.51s-34,3.76-48.92,10.51c10.27-22.72,27.48-41.63,48.92-54.03Z"/>
    <path class="cls-1" d="m237.72,59.44c-21.65,0-41.95,5.79-59.43,15.9-17.48-10.11-37.78-15.9-59.43-15.9-17.44,0-34,3.75-48.91,10.5C88.59,28.7,130.09,0,178.29,0s89.71,28.7,108.35,69.94c-14.92-6.75-31.48-10.5-48.92-10.5Z"/>
    <path class="cls-1" d="m178.29,281.25c-21.45-12.4-38.64-31.31-48.91-54.03,14.92,6.74,31.47,10.5,48.91,10.5s34-3.76,48.92-10.5c-10.28,22.72-27.47,41.63-48.92,54.03Z"/>
    <path class="cls-1" d="m286.64,286.65c-18.64,41.24-60.14,69.93-108.35,69.93s-89.7-28.69-108.34-69.93c14.91,6.75,31.47,10.5,48.91,10.5,21.65,0,41.95-5.79,59.43-15.9,17.48,10.11,37.78,15.9,59.43,15.9,17.44,0,34-3.75,48.92-10.5Z"/>
  </g>
</svg>