<?xml version="1.0" encoding="UTF-8"?>
<svg id="Layer_2" data-name="Layer 2" xmlns="http://www.w3.org/2000/svg" viewBox="0 0 259.06 259.05">
  <defs>
    <style>
      .cls-1 {
        fill: #0d140d;
      }
    </style>
  </defs>
  <g id="Layer_1-2" data-name="Layer 1">
    <path class="cls-1" d="m258.37,24.31l-16.8,62.72-25.46,94.99-16.8,62.72c-3.84,14.34-21.78,19.16-32.29,8.65l-45.91-45.91-34.77-34.77c3.31,3.32,8.27,4.99,13.44,3.6l45.22-12.12,68.52-18.35,18.35-68.51-50.15-50.15-68.51,18.35-18.35,68.52-12.12,45.22c-1.38,5.17.29,10.13,3.6,13.44l-34.77-34.77L5.66,92.03C-4.85,81.52-.03,63.58,14.31,59.74l62.72-16.81,95-25.44L234.74.68c14.35-3.85,27.49,9.28,23.63,23.63Z"/>
    <path class="cls-1" d="m241.57,87.03l-25.46,94.99-95,25.46-62.71,16.8c-14.35,3.85-27.48-9.28-23.63-23.63l16.8-62.71,25.46-95.01,95-25.44,9.69,9.69-68.51,18.35-18.35,68.52-12.12,45.22c-1.38,5.17.29,10.13,3.6,13.44,3.31,3.32,8.27,4.99,13.44,3.6l45.22-12.12,68.52-18.35,18.35-68.51,9.7,9.7Z"/>
  </g>
</svg>