<?xml version="1.0" encoding="UTF-8"?>
<svg id="Layer_2" data-name="Layer 2" xmlns="http://www.w3.org/2000/svg" viewBox="0 0 22 22.11">
  <defs>
    <style>
      .cls-1 {
        fill: none;
        stroke: #000;
        stroke-linecap: round;
        stroke-linejoin: round;
        stroke-width: 2px;
      }
    </style>
  </defs>
  <g id="Layer_1-2" data-name="Layer 1">
    <path class="cls-1" d="m21,13.11c0,4.42-3.58,8-8,8"/>
    <path class="cls-1" d="m9,13.11c-1.1,0-2,.9-2,2s.9,2,2,2h1"/>
    <path class="cls-1" d="m9,9.11h-1c-1.1,0-2,.9-2,2s.9,2,2,2h1"/>
    <path class="cls-1" d="m13,5.11H3c-1.1,0-2,.9-2,2s.9,2,2,2h5.5"/>
    <path class="cls-1" d="m14,6.11l-1.76-1.76c-.69-.76-.69-1.92,0-2.69.74-.82,2-.88,2.82-.14l3.6,3.6c1.48,1.49,2.34,3.19,2.34,5.99v2c0,4.42-3.58,8-8,8h-3c-1.1,0-2-.9-2-2s.9-2,2-2"/>
  </g>
</svg>